<mxfile host="app.diagrams.net" modified="2022-12-11T02:58:29.888Z" agent="5.0 (Windows NT 10.0; Win64; x64) AppleWebKit/537.36 (KHTML, like Gecko) Chrome/107.0.0.0 Safari/537.36 Edg/107.0.1418.62" version="20.6.2" etag="s09A5aYQvlIvRh5JC92X" type="github">
  <diagram id="SHbcHPAf8antukamrYE9" name="第 1 页">
    <mxGraphModel dx="1038" dy="579" grid="1" gridSize="10" guides="1" tooltips="1" connect="1" arrows="1" fold="1" page="1" pageScale="1" pageWidth="827" pageHeight="1169" math="0" shadow="0">
      <root>
        <mxCell id="0" />
        <mxCell id="1" parent="0" />
        <mxCell id="kBGypDKORu7h_Cp36NhA-7" style="edgeStyle=orthogonalEdgeStyle;rounded=0;orthogonalLoop=1;jettySize=auto;html=1;" edge="1" parent="1" source="kBGypDKORu7h_Cp36NhA-2">
          <mxGeometry relative="1" as="geometry">
            <mxPoint x="530" y="436" as="targetPoint" />
          </mxGeometry>
        </mxCell>
        <mxCell id="kBGypDKORu7h_Cp36NhA-2" value="代码" style="sketch=0;outlineConnect=0;fontColor=#232F3E;gradientColor=none;fillColor=#000000;strokeColor=none;dashed=0;verticalLabelPosition=bottom;verticalAlign=top;align=center;html=1;fontSize=12;fontStyle=0;aspect=fixed;shape=mxgraph.aws4.mainframe_modernization_developer;" vertex="1" parent="1">
          <mxGeometry x="384" y="406" width="60" height="60" as="geometry" />
        </mxCell>
        <mxCell id="kBGypDKORu7h_Cp36NhA-4" style="edgeStyle=orthogonalEdgeStyle;rounded=0;orthogonalLoop=1;jettySize=auto;html=1;exitX=0.98;exitY=0.51;exitDx=0;exitDy=0;exitPerimeter=0;" edge="1" parent="1" source="kBGypDKORu7h_Cp36NhA-3" target="kBGypDKORu7h_Cp36NhA-2">
          <mxGeometry relative="1" as="geometry" />
        </mxCell>
        <mxCell id="kBGypDKORu7h_Cp36NhA-3" value="开发者" style="points=[[0.35,0,0],[0.98,0.51,0],[1,0.71,0],[0.67,1,0],[0,0.795,0],[0,0.65,0]];verticalLabelPosition=bottom;sketch=0;html=1;verticalAlign=top;aspect=fixed;align=center;pointerEvents=1;shape=mxgraph.cisco19.user;fillColor=#000000;strokeColor=none;" vertex="1" parent="1">
          <mxGeometry x="250" y="411" width="50" height="50" as="geometry" />
        </mxCell>
        <mxCell id="kBGypDKORu7h_Cp36NhA-5" value="编写" style="text;html=1;align=center;verticalAlign=middle;resizable=0;points=[];autosize=1;strokeColor=none;fillColor=none;" vertex="1" parent="1">
          <mxGeometry x="310" y="436" width="50" height="30" as="geometry" />
        </mxCell>
        <mxCell id="kBGypDKORu7h_Cp36NhA-8" value="上传" style="text;html=1;align=center;verticalAlign=middle;resizable=0;points=[];autosize=1;strokeColor=none;fillColor=none;" vertex="1" parent="1">
          <mxGeometry x="460" y="435" width="50" height="30" as="geometry" />
        </mxCell>
        <mxCell id="kBGypDKORu7h_Cp36NhA-9" value="Lambda&#xa;Function" style="sketch=0;outlineConnect=0;fontColor=#232F3E;gradientColor=none;strokeColor=#000000;fillColor=#ffffff;dashed=0;verticalLabelPosition=bottom;verticalAlign=top;align=center;html=1;fontSize=12;fontStyle=0;aspect=fixed;shape=mxgraph.aws4.resourceIcon;resIcon=mxgraph.aws4.lambda_function;" vertex="1" parent="1">
          <mxGeometry x="540" y="400" width="60" height="60" as="geometry" />
        </mxCell>
        <mxCell id="kBGypDKORu7h_Cp36NhA-16" value="" style="endArrow=classic;html=1;rounded=0;startArrow=none;" edge="1" parent="1" source="kBGypDKORu7h_Cp36NhA-32">
          <mxGeometry width="50" height="50" relative="1" as="geometry">
            <mxPoint x="600" y="436" as="sourcePoint" />
            <mxPoint x="690" y="436" as="targetPoint" />
          </mxGeometry>
        </mxCell>
        <mxCell id="kBGypDKORu7h_Cp36NhA-17" value="" style="endArrow=none;html=1;rounded=0;" edge="1" parent="1">
          <mxGeometry width="50" height="50" relative="1" as="geometry">
            <mxPoint x="640" y="510" as="sourcePoint" />
            <mxPoint x="640" y="350" as="targetPoint" />
          </mxGeometry>
        </mxCell>
        <mxCell id="kBGypDKORu7h_Cp36NhA-18" value="" style="endArrow=classic;html=1;rounded=0;" edge="1" parent="1">
          <mxGeometry width="50" height="50" relative="1" as="geometry">
            <mxPoint x="640" y="349.5" as="sourcePoint" />
            <mxPoint x="690" y="349.5" as="targetPoint" />
          </mxGeometry>
        </mxCell>
        <mxCell id="kBGypDKORu7h_Cp36NhA-19" value="" style="endArrow=classic;html=1;rounded=0;" edge="1" parent="1">
          <mxGeometry width="50" height="50" relative="1" as="geometry">
            <mxPoint x="640" y="509.5" as="sourcePoint" />
            <mxPoint x="690" y="509.5" as="targetPoint" />
          </mxGeometry>
        </mxCell>
        <mxCell id="kBGypDKORu7h_Cp36NhA-32" value="弹性执行" style="text;html=1;strokeColor=none;fillColor=none;align=center;verticalAlign=middle;whiteSpace=wrap;rounded=0;" vertex="1" parent="1">
          <mxGeometry x="620" y="411" width="20" height="50" as="geometry" />
        </mxCell>
        <mxCell id="kBGypDKORu7h_Cp36NhA-33" value="" style="endArrow=none;html=1;rounded=0;" edge="1" parent="1" target="kBGypDKORu7h_Cp36NhA-32">
          <mxGeometry width="50" height="50" relative="1" as="geometry">
            <mxPoint x="600" y="436" as="sourcePoint" />
            <mxPoint x="690" y="436" as="targetPoint" />
          </mxGeometry>
        </mxCell>
        <mxCell id="kBGypDKORu7h_Cp36NhA-35" value="" style="group" vertex="1" connectable="0" parent="1">
          <mxGeometry x="690" y="320" width="60" height="76" as="geometry" />
        </mxCell>
        <mxCell id="kBGypDKORu7h_Cp36NhA-10" value="" style="sketch=0;outlineConnect=0;fontColor=#232F3E;gradientColor=none;strokeColor=#000000;fillColor=#ffffff;dashed=0;verticalLabelPosition=bottom;verticalAlign=top;align=center;html=1;fontSize=12;fontStyle=0;aspect=fixed;shape=mxgraph.aws4.resourceIcon;resIcon=mxgraph.aws4.lambda_function;" vertex="1" parent="kBGypDKORu7h_Cp36NhA-35">
          <mxGeometry width="60" height="60" as="geometry" />
        </mxCell>
        <mxCell id="kBGypDKORu7h_Cp36NhA-34" value="接口实例" style="text;html=1;strokeColor=none;fillColor=none;align=center;verticalAlign=middle;whiteSpace=wrap;rounded=0;" vertex="1" parent="kBGypDKORu7h_Cp36NhA-35">
          <mxGeometry x="5" y="52" width="50" height="24" as="geometry" />
        </mxCell>
        <mxCell id="kBGypDKORu7h_Cp36NhA-36" value="" style="group" vertex="1" connectable="0" parent="1">
          <mxGeometry x="690" y="406" width="60" height="76" as="geometry" />
        </mxCell>
        <mxCell id="kBGypDKORu7h_Cp36NhA-37" value="" style="sketch=0;outlineConnect=0;fontColor=#232F3E;gradientColor=none;strokeColor=#000000;fillColor=#ffffff;dashed=0;verticalLabelPosition=bottom;verticalAlign=top;align=center;html=1;fontSize=12;fontStyle=0;aspect=fixed;shape=mxgraph.aws4.resourceIcon;resIcon=mxgraph.aws4.lambda_function;" vertex="1" parent="kBGypDKORu7h_Cp36NhA-36">
          <mxGeometry width="60" height="60" as="geometry" />
        </mxCell>
        <mxCell id="kBGypDKORu7h_Cp36NhA-38" value="接口实例" style="text;html=1;strokeColor=none;fillColor=none;align=center;verticalAlign=middle;whiteSpace=wrap;rounded=0;" vertex="1" parent="kBGypDKORu7h_Cp36NhA-36">
          <mxGeometry x="5" y="52" width="50" height="24" as="geometry" />
        </mxCell>
        <mxCell id="kBGypDKORu7h_Cp36NhA-39" value="" style="group" vertex="1" connectable="0" parent="1">
          <mxGeometry x="690" y="482" width="60" height="76" as="geometry" />
        </mxCell>
        <mxCell id="kBGypDKORu7h_Cp36NhA-40" value="" style="sketch=0;outlineConnect=0;fontColor=#232F3E;gradientColor=none;strokeColor=#000000;fillColor=#ffffff;dashed=0;verticalLabelPosition=bottom;verticalAlign=top;align=center;html=1;fontSize=12;fontStyle=0;aspect=fixed;shape=mxgraph.aws4.resourceIcon;resIcon=mxgraph.aws4.lambda_function;" vertex="1" parent="kBGypDKORu7h_Cp36NhA-39">
          <mxGeometry width="60" height="60" as="geometry" />
        </mxCell>
        <mxCell id="kBGypDKORu7h_Cp36NhA-41" value="接口实例" style="text;html=1;strokeColor=none;fillColor=none;align=center;verticalAlign=middle;whiteSpace=wrap;rounded=0;" vertex="1" parent="kBGypDKORu7h_Cp36NhA-39">
          <mxGeometry x="5" y="52" width="50" height="24" as="geometry" />
        </mxCell>
        <mxCell id="kBGypDKORu7h_Cp36NhA-26" style="edgeStyle=orthogonalEdgeStyle;rounded=0;orthogonalLoop=1;jettySize=auto;html=1;" edge="1" parent="1" source="kBGypDKORu7h_Cp36NhA-24">
          <mxGeometry relative="1" as="geometry">
            <mxPoint x="567.5" y="500" as="targetPoint" />
          </mxGeometry>
        </mxCell>
        <mxCell id="kBGypDKORu7h_Cp36NhA-24" value="Api" style="shape=providedRequiredInterface;html=1;verticalLabelPosition=bottom;sketch=0;strokeColor=#000000;fillColor=#000000;" vertex="1" parent="1">
          <mxGeometry x="392.5" y="517.5" width="35" height="35" as="geometry" />
        </mxCell>
        <mxCell id="kBGypDKORu7h_Cp36NhA-29" value="调用" style="text;html=1;align=center;verticalAlign=middle;resizable=0;points=[];autosize=1;strokeColor=none;fillColor=none;" vertex="1" parent="1">
          <mxGeometry x="427.5" y="540" width="50" height="30" as="geometry" />
        </mxCell>
      </root>
    </mxGraphModel>
  </diagram>
</mxfile>
